<?xml version="1.0" encoding="utf-8" standalone="no"?>
<!DOCTYPE svg PUBLIC "-//W3C//DTD SVG 1.1//EN"
  "http://www.w3.org/Graphics/SVG/1.1/DTD/svg11.dtd">
<!-- Created with matplotlib (https://matplotlib.org/) -->
<svg height="720pt" version="1.1" viewBox="0 0 1080 720" width="1080pt" xmlns="http://www.w3.org/2000/svg" xmlns:xlink="http://www.w3.org/1999/xlink">
 <defs>
  <style type="text/css">
*{stroke-linecap:butt;stroke-linejoin:round;}
  </style>
 </defs>
 <g id="figure_1">
  <g id="patch_1">
   <path d="M 0 720 
L 1080 720 
L 1080 0 
L 0 0 
z
" style="fill:#ffffff;"/>
  </g>
  <g id="axes_1">
   <g id="patch_2">
    <path d="M 135 630 
L 972 630 
L 972 86.4 
L 135 86.4 
z
" style="fill:#ffffff;"/>
   </g>
   <g id="PolyCollection_1">
    <defs>
     <path d="M 173.045455 -355.907237 
L 173.045455 -342.589593 
L 206.128458 -154.573631 
L 239.211462 -133.065047 
L 272.294466 -115.872912 
L 305.37747 -146.743623 
L 338.460474 -120.042041 
L 371.543478 -119.465103 
L 404.626482 -114.709091 
L 437.709486 -219.600268 
L 470.79249 -168.944606 
L 503.875494 -145.734487 
L 536.958498 -128.409764 
L 570.041502 -463.457524 
L 603.124506 -243.834255 
L 636.20751 -164.554498 
L 669.290514 -139.944847 
L 702.373518 -522.223101 
L 735.456522 -269.526701 
L 768.539526 -155.06715 
L 801.62253 -139.274546 
L 834.705534 -494.453456 
L 867.788538 -237.970956 
L 900.871542 -161.571287 
L 933.954545 -128.859088 
L 933.954545 -131.739175 
L 933.954545 -131.739175 
L 900.871542 -170.955512 
L 867.788538 -276.620114 
L 834.705534 -531.025415 
L 801.62253 -157.085421 
L 768.539526 -173.054808 
L 735.456522 -303.704725 
L 702.373518 -575.154842 
L 669.290514 -147.49495 
L 636.20751 -180.221881 
L 603.124506 -301.612794 
L 570.041502 -567.457421 
L 536.958498 -150.58865 
L 503.875494 -175.898066 
L 470.79249 -306.614277 
L 437.709486 -516.359802 
L 404.626482 -260.79068 
L 371.543478 -122.303389 
L 338.460474 -120.469267 
L 305.37747 -155.472277 
L 272.294466 -116.204379 
L 239.211462 -135.503178 
L 206.128458 -164.84177 
L 173.045455 -355.907237 
z
" id="m309ae6fbd2" style="stroke:#1f77b4;stroke-opacity:0.2;"/>
    </defs>
    <g clip-path="url(#p99f972c3ca)">
     <use style="fill:#1f77b4;fill-opacity:0.2;stroke:#1f77b4;stroke-opacity:0.2;" x="0" xlink:href="#m309ae6fbd2" y="720"/>
    </g>
   </g>
   <g id="PolyCollection_2">
    <defs>
     <path d="M 173.045455 -395.646556 
L 173.045455 -341.278454 
L 206.128458 -157.96197 
L 239.211462 -130.229155 
L 272.294466 -115.570907 
L 305.37747 -149.631076 
L 338.460474 -121.080641 
L 371.543478 -122.222363 
L 404.626482 -125.301332 
L 437.709486 -493.886278 
L 470.79249 -283.706161 
L 503.875494 -151.362075 
L 536.958498 -150.021472 
L 570.041502 -547.871351 
L 603.124506 -295.786325 
L 636.20751 -169.961108 
L 669.290514 -144.519105 
L 702.373518 -578.830453 
L 735.456522 -303.829946 
L 768.539526 -144.622228 
L 801.62253 -148.202081 
L 834.705534 -539.13533 
L 867.788538 -281.157541 
L 900.871542 -163.847366 
L 933.954545 -131.149899 
L 933.954545 -133.750081 
L 933.954545 -133.750081 
L 900.871542 -171.86889 
L 867.788538 -284.951007 
L 834.705534 -579.810125 
L 801.62253 -154.330555 
L 768.539526 -156.238337 
L 735.456522 -316.337335 
L 702.373518 -606.290728 
L 669.290514 -149.329072 
L 636.20751 -172.480264 
L 603.124506 -299.277787 
L 570.041502 -596.412984 
L 536.958498 -152.054475 
L 503.875494 -196.110243 
L 470.79249 -395.720216 
L 437.709486 -504.574276 
L 404.626482 -126.28837 
L 371.543478 -125.979 
L 338.460474 -121.610989 
L 305.37747 -155.221835 
L 272.294466 -115.828716 
L 239.211462 -135.746254 
L 206.128458 -170.484091 
L 173.045455 -395.646556 
z
" id="m5ce9c65903" style="stroke:#ff7f0e;stroke-opacity:0.2;"/>
    </defs>
    <g clip-path="url(#p99f972c3ca)">
     <use style="fill:#ff7f0e;fill-opacity:0.2;stroke:#ff7f0e;stroke-opacity:0.2;" x="0" xlink:href="#m5ce9c65903" y="720"/>
    </g>
   </g>
   <g id="PolyCollection_3">
    <defs>
     <path d="M 173.045455 -414.068806 
L 173.045455 -384.906996 
L 206.128458 -170.145257 
L 239.211462 -131.510831 
L 272.294466 -115.246806 
L 305.37747 -146.979333 
L 338.460474 -121.736211 
L 371.543478 -121.957189 
L 404.626482 -123.850239 
L 437.709486 -508.1173 
L 470.79249 -296.493457 
L 503.875494 -169.718031 
L 536.958498 -148.290473 
L 570.041502 -549.513958 
L 603.124506 -287.146062 
L 636.20751 -172.296115 
L 669.290514 -145.425117 
L 702.373518 -596.847575 
L 735.456522 -296.670239 
L 768.539526 -149.122826 
L 801.62253 -150.154059 
L 834.705534 -553.358986 
L 867.788538 -273.717928 
L 900.871542 -160.753666 
L 933.954545 -131.171997 
L 933.954545 -135.179076 
L 933.954545 -135.179076 
L 900.871542 -175.352986 
L 867.788538 -281.562669 
L 834.705534 -570.993078 
L 801.62253 -151.605152 
L 768.539526 -153.181466 
L 735.456522 -307.851757 
L 702.373518 -604.110405 
L 669.290514 -148.437792 
L 636.20751 -175.61816 
L 603.124506 -307.159357 
L 570.041502 -602.467798 
L 536.958498 -187.801447 
L 503.875494 -175.942262 
L 470.79249 -348.416063 
L 437.709486 -536.910812 
L 404.626482 -125.750655 
L 371.543478 -123.172571 
L 338.460474 -122.524368 
L 305.37747 -156.672928 
L 272.294466 -117.75123 
L 239.211462 -140.202656 
L 206.128458 -181.555119 
L 173.045455 -414.068806 
z
" id="m329953c89f" style="stroke:#2ca02c;stroke-opacity:0.2;"/>
    </defs>
    <g clip-path="url(#p99f972c3ca)">
     <use style="fill:#2ca02c;fill-opacity:0.2;stroke:#2ca02c;stroke-opacity:0.2;" x="0" xlink:href="#m329953c89f" y="720"/>
    </g>
   </g>
   <g id="PolyCollection_4">
    <defs>
     <path d="M 173.045455 -431.216745 
L 173.045455 -368.17155 
L 206.128458 -167.640833 
L 239.211462 -134.287795 
L 272.294466 -116.034963 
L 305.37747 -151.229488 
L 338.460474 -120.970151 
L 371.543478 -121.964555 
L 404.626482 -125.242404 
L 437.709486 -512.802046 
L 470.79249 -261.144246 
L 503.875494 -170.255746 
L 536.958498 -151.789301 
L 570.041502 -559.406434 
L 603.124506 -294.953972 
L 636.20751 -175.279326 
L 669.290514 -148.474622 
L 702.373518 -595.45541 
L 735.456522 -285.076229 
L 768.539526 -146.007027 
L 801.62253 -150.846459 
L 834.705534 -553.638892 
L 867.788538 -276.583284 
L 900.871542 -159.950777 
L 933.954545 -133.271294 
L 933.954545 -137.882381 
L 933.954545 -137.882381 
L 900.871542 -169.305538 
L 867.788538 -285.061497 
L 834.705534 -563.501904 
L 801.62253 -155.656426 
L 768.539526 -149.918348 
L 735.456522 -299.218859 
L 702.373518 -608.890909 
L 669.290514 -151.185292 
L 636.20751 -175.736015 
L 603.124506 -307.093064 
L 570.041502 -582.267959 
L 536.958498 -155.75955 
L 503.875494 -173.290519 
L 470.79249 -299.152566 
L 437.709486 -538.428198 
L 404.626482 -125.846413 
L 371.543478 -122.531733 
L 338.460474 -122.480172 
L 305.37747 -154.750414 
L 272.294466 -117.633374 
L 239.211462 -139.399767 
L 206.128458 -184.729845 
L 173.045455 -431.216745 
z
" id="mf7eadb5ccc" style="stroke:#d62728;stroke-opacity:0.2;"/>
    </defs>
    <g clip-path="url(#p99f972c3ca)">
     <use style="fill:#d62728;fill-opacity:0.2;stroke:#d62728;stroke-opacity:0.2;" x="0" xlink:href="#mf7eadb5ccc" y="720"/>
    </g>
   </g>
   <g id="PolyCollection_5">
    <defs>
     <path d="M 173.045455 -423.239418 
L 173.045455 -392.420269 
L 206.128458 -177.010325 
L 239.211462 -135.576837 
L 272.294466 -116.904145 
L 305.37747 -158.720663 
L 338.460474 -121.692015 
L 371.543478 -122.966325 
L 404.626482 -124.763617 
L 437.709486 -469.792244 
L 470.79249 -281.835209 
L 503.875494 -169.438125 
L 536.958498 -146.581572 
L 570.041502 -549.594984 
L 603.124506 -289.503167 
L 636.20751 -174.056578 
L 669.290514 -146.743623 
L 702.373518 -567.29537 
L 735.456522 -291.786612 
L 768.539526 -149.910983 
L 801.62253 -149.815225 
L 834.705534 -536.0048 
L 867.788538 -274.623941 
L 900.871542 -163.36858 
L 933.954545 -134.641361 
L 933.954545 -135.665229 
L 933.954545 -135.665229 
L 900.871542 -170.28521 
L 867.788538 -296.228282 
L 834.705534 -571.714942 
L 801.62253 -153.122538 
L 768.539526 -156.120481 
L 735.456522 -303.159644 
L 702.373518 -606.224434 
L 669.290514 -155.568035 
L 636.20751 -181.628778 
L 603.124506 -302.9313 
L 570.041502 -597.031724 
L 536.958498 -203.144728 
L 503.875494 -219.88754 
L 470.79249 -287.588019 
L 437.709486 -493.311733 
L 404.626482 -127.393263 
L 371.543478 -123.511405 
L 338.460474 -122.075044 
L 305.37747 -159.685603 
L 272.294466 -117.957476 
L 239.211462 -144.003488 
L 206.128458 -193.222789 
L 173.045455 -423.239418 
z
" id="m7e00d0bb71" style="stroke:#9467bd;stroke-opacity:0.2;"/>
    </defs>
    <g clip-path="url(#p99f972c3ca)">
     <use style="fill:#9467bd;fill-opacity:0.2;stroke:#9467bd;stroke-opacity:0.2;" x="0" xlink:href="#m7e00d0bb71" y="720"/>
    </g>
   </g>
   <g id="matplotlib.axis_1">
    <g id="xtick_1">
     <g id="line2d_1">
      <defs>
       <path d="M 0 0 
L 0 3.5 
" id="m715095cd29" style="stroke:#000000;stroke-width:0.8;"/>
      </defs>
      <g>
       <use style="stroke:#000000;stroke-width:0.8;" x="173.045455" xlink:href="#m715095cd29" y="630"/>
      </g>
     </g>
     <g id="text_1">
      <!-- 00 -->
      <defs>
       <path d="M 31.78125 66.40625 
Q 24.171875 66.40625 20.328125 58.90625 
Q 16.5 51.421875 16.5 36.375 
Q 16.5 21.390625 20.328125 13.890625 
Q 24.171875 6.390625 31.78125 6.390625 
Q 39.453125 6.390625 43.28125 13.890625 
Q 47.125 21.390625 47.125 36.375 
Q 47.125 51.421875 43.28125 58.90625 
Q 39.453125 66.40625 31.78125 66.40625 
z
M 31.78125 74.21875 
Q 44.046875 74.21875 50.515625 64.515625 
Q 56.984375 54.828125 56.984375 36.375 
Q 56.984375 17.96875 50.515625 8.265625 
Q 44.046875 -1.421875 31.78125 -1.421875 
Q 19.53125 -1.421875 13.0625 8.265625 
Q 6.59375 17.96875 6.59375 36.375 
Q 6.59375 54.828125 13.0625 64.515625 
Q 19.53125 74.21875 31.78125 74.21875 
z
" id="DejaVuSans-48"/>
      </defs>
      <g transform="translate(177.184517 656.0875)rotate(-90)scale(0.15 -0.15)">
       <use xlink:href="#DejaVuSans-48"/>
       <use x="63.623047" xlink:href="#DejaVuSans-48"/>
      </g>
     </g>
    </g>
    <g id="xtick_2">
     <g id="line2d_2">
      <g>
       <use style="stroke:#000000;stroke-width:0.8;" x="206.128458" xlink:href="#m715095cd29" y="630"/>
      </g>
     </g>
     <g id="text_2">
      <!-- 01 -->
      <defs>
       <path d="M 12.40625 8.296875 
L 28.515625 8.296875 
L 28.515625 63.921875 
L 10.984375 60.40625 
L 10.984375 69.390625 
L 28.421875 72.90625 
L 38.28125 72.90625 
L 38.28125 8.296875 
L 54.390625 8.296875 
L 54.390625 0 
L 12.40625 0 
z
" id="DejaVuSans-49"/>
      </defs>
      <g transform="translate(210.267521 656.0875)rotate(-90)scale(0.15 -0.15)">
       <use xlink:href="#DejaVuSans-48"/>
       <use x="63.623047" xlink:href="#DejaVuSans-49"/>
      </g>
     </g>
    </g>
    <g id="xtick_3">
     <g id="line2d_3">
      <g>
       <use style="stroke:#000000;stroke-width:0.8;" x="239.211462" xlink:href="#m715095cd29" y="630"/>
      </g>
     </g>
     <g id="text_3">
      <!-- 02 -->
      <defs>
       <path d="M 19.1875 8.296875 
L 53.609375 8.296875 
L 53.609375 0 
L 7.328125 0 
L 7.328125 8.296875 
Q 12.9375 14.109375 22.625 23.890625 
Q 32.328125 33.6875 34.8125 36.53125 
Q 39.546875 41.84375 41.421875 45.53125 
Q 43.3125 49.21875 43.3125 52.78125 
Q 43.3125 58.59375 39.234375 62.25 
Q 35.15625 65.921875 28.609375 65.921875 
Q 23.96875 65.921875 18.8125 64.3125 
Q 13.671875 62.703125 7.8125 59.421875 
L 7.8125 69.390625 
Q 13.765625 71.78125 18.9375 73 
Q 24.125 74.21875 28.421875 74.21875 
Q 39.75 74.21875 46.484375 68.546875 
Q 53.21875 62.890625 53.21875 53.421875 
Q 53.21875 48.921875 51.53125 44.890625 
Q 49.859375 40.875 45.40625 35.40625 
Q 44.1875 33.984375 37.640625 27.21875 
Q 31.109375 20.453125 19.1875 8.296875 
z
" id="DejaVuSans-50"/>
      </defs>
      <g transform="translate(243.350525 656.0875)rotate(-90)scale(0.15 -0.15)">
       <use xlink:href="#DejaVuSans-48"/>
       <use x="63.623047" xlink:href="#DejaVuSans-50"/>
      </g>
     </g>
    </g>
    <g id="xtick_4">
     <g id="line2d_4">
      <g>
       <use style="stroke:#000000;stroke-width:0.8;" x="272.294466" xlink:href="#m715095cd29" y="630"/>
      </g>
     </g>
     <g id="text_4">
      <!-- 03 -->
      <defs>
       <path d="M 40.578125 39.3125 
Q 47.65625 37.796875 51.625 33 
Q 55.609375 28.21875 55.609375 21.1875 
Q 55.609375 10.40625 48.1875 4.484375 
Q 40.765625 -1.421875 27.09375 -1.421875 
Q 22.515625 -1.421875 17.65625 -0.515625 
Q 12.796875 0.390625 7.625 2.203125 
L 7.625 11.71875 
Q 11.71875 9.328125 16.59375 8.109375 
Q 21.484375 6.890625 26.8125 6.890625 
Q 36.078125 6.890625 40.9375 10.546875 
Q 45.796875 14.203125 45.796875 21.1875 
Q 45.796875 27.640625 41.28125 31.265625 
Q 36.765625 34.90625 28.71875 34.90625 
L 20.21875 34.90625 
L 20.21875 43.015625 
L 29.109375 43.015625 
Q 36.375 43.015625 40.234375 45.921875 
Q 44.09375 48.828125 44.09375 54.296875 
Q 44.09375 59.90625 40.109375 62.90625 
Q 36.140625 65.921875 28.71875 65.921875 
Q 24.65625 65.921875 20.015625 65.03125 
Q 15.375 64.15625 9.8125 62.3125 
L 9.8125 71.09375 
Q 15.4375 72.65625 20.34375 73.4375 
Q 25.25 74.21875 29.59375 74.21875 
Q 40.828125 74.21875 47.359375 69.109375 
Q 53.90625 64.015625 53.90625 55.328125 
Q 53.90625 49.265625 50.4375 45.09375 
Q 46.96875 40.921875 40.578125 39.3125 
z
" id="DejaVuSans-51"/>
      </defs>
      <g transform="translate(276.433529 656.0875)rotate(-90)scale(0.15 -0.15)">
       <use xlink:href="#DejaVuSans-48"/>
       <use x="63.623047" xlink:href="#DejaVuSans-51"/>
      </g>
     </g>
    </g>
    <g id="xtick_5">
     <g id="line2d_5">
      <g>
       <use style="stroke:#000000;stroke-width:0.8;" x="305.37747" xlink:href="#m715095cd29" y="630"/>
      </g>
     </g>
     <g id="text_5">
      <!-- 04 -->
      <defs>
       <path d="M 37.796875 64.3125 
L 12.890625 25.390625 
L 37.796875 25.390625 
z
M 35.203125 72.90625 
L 47.609375 72.90625 
L 47.609375 25.390625 
L 58.015625 25.390625 
L 58.015625 17.1875 
L 47.609375 17.1875 
L 47.609375 0 
L 37.796875 0 
L 37.796875 17.1875 
L 4.890625 17.1875 
L 4.890625 26.703125 
z
" id="DejaVuSans-52"/>
      </defs>
      <g transform="translate(309.516533 656.0875)rotate(-90)scale(0.15 -0.15)">
       <use xlink:href="#DejaVuSans-48"/>
       <use x="63.623047" xlink:href="#DejaVuSans-52"/>
      </g>
     </g>
    </g>
    <g id="xtick_6">
     <g id="line2d_6">
      <g>
       <use style="stroke:#000000;stroke-width:0.8;" x="338.460474" xlink:href="#m715095cd29" y="630"/>
      </g>
     </g>
     <g id="text_6">
      <!-- 05 -->
      <defs>
       <path d="M 10.796875 72.90625 
L 49.515625 72.90625 
L 49.515625 64.59375 
L 19.828125 64.59375 
L 19.828125 46.734375 
Q 21.96875 47.46875 24.109375 47.828125 
Q 26.265625 48.1875 28.421875 48.1875 
Q 40.625 48.1875 47.75 41.5 
Q 54.890625 34.8125 54.890625 23.390625 
Q 54.890625 11.625 47.5625 5.09375 
Q 40.234375 -1.421875 26.90625 -1.421875 
Q 22.3125 -1.421875 17.546875 -0.640625 
Q 12.796875 0.140625 7.71875 1.703125 
L 7.71875 11.625 
Q 12.109375 9.234375 16.796875 8.0625 
Q 21.484375 6.890625 26.703125 6.890625 
Q 35.15625 6.890625 40.078125 11.328125 
Q 45.015625 15.765625 45.015625 23.390625 
Q 45.015625 31 40.078125 35.4375 
Q 35.15625 39.890625 26.703125 39.890625 
Q 22.75 39.890625 18.8125 39.015625 
Q 14.890625 38.140625 10.796875 36.28125 
z
" id="DejaVuSans-53"/>
      </defs>
      <g transform="translate(342.599537 656.0875)rotate(-90)scale(0.15 -0.15)">
       <use xlink:href="#DejaVuSans-48"/>
       <use x="63.623047" xlink:href="#DejaVuSans-53"/>
      </g>
     </g>
    </g>
    <g id="xtick_7">
     <g id="line2d_7">
      <g>
       <use style="stroke:#000000;stroke-width:0.8;" x="371.543478" xlink:href="#m715095cd29" y="630"/>
      </g>
     </g>
     <g id="text_7">
      <!-- 06 -->
      <defs>
       <path d="M 33.015625 40.375 
Q 26.375 40.375 22.484375 35.828125 
Q 18.609375 31.296875 18.609375 23.390625 
Q 18.609375 15.53125 22.484375 10.953125 
Q 26.375 6.390625 33.015625 6.390625 
Q 39.65625 6.390625 43.53125 10.953125 
Q 47.40625 15.53125 47.40625 23.390625 
Q 47.40625 31.296875 43.53125 35.828125 
Q 39.65625 40.375 33.015625 40.375 
z
M 52.59375 71.296875 
L 52.59375 62.3125 
Q 48.875 64.0625 45.09375 64.984375 
Q 41.3125 65.921875 37.59375 65.921875 
Q 27.828125 65.921875 22.671875 59.328125 
Q 17.53125 52.734375 16.796875 39.40625 
Q 19.671875 43.65625 24.015625 45.921875 
Q 28.375 48.1875 33.59375 48.1875 
Q 44.578125 48.1875 50.953125 41.515625 
Q 57.328125 34.859375 57.328125 23.390625 
Q 57.328125 12.15625 50.6875 5.359375 
Q 44.046875 -1.421875 33.015625 -1.421875 
Q 20.359375 -1.421875 13.671875 8.265625 
Q 6.984375 17.96875 6.984375 36.375 
Q 6.984375 53.65625 15.1875 63.9375 
Q 23.390625 74.21875 37.203125 74.21875 
Q 40.921875 74.21875 44.703125 73.484375 
Q 48.484375 72.75 52.59375 71.296875 
z
" id="DejaVuSans-54"/>
      </defs>
      <g transform="translate(375.682541 656.0875)rotate(-90)scale(0.15 -0.15)">
       <use xlink:href="#DejaVuSans-48"/>
       <use x="63.623047" xlink:href="#DejaVuSans-54"/>
      </g>
     </g>
    </g>
    <g id="xtick_8">
     <g id="line2d_8">
      <g>
       <use style="stroke:#000000;stroke-width:0.8;" x="404.626482" xlink:href="#m715095cd29" y="630"/>
      </g>
     </g>
     <g id="text_8">
      <!-- 07 -->
      <defs>
       <path d="M 8.203125 72.90625 
L 55.078125 72.90625 
L 55.078125 68.703125 
L 28.609375 0 
L 18.3125 0 
L 43.21875 64.59375 
L 8.203125 64.59375 
z
" id="DejaVuSans-55"/>
      </defs>
      <g transform="translate(408.765545 656.0875)rotate(-90)scale(0.15 -0.15)">
       <use xlink:href="#DejaVuSans-48"/>
       <use x="63.623047" xlink:href="#DejaVuSans-55"/>
      </g>
     </g>
    </g>
    <g id="xtick_9">
     <g id="line2d_9">
      <g>
       <use style="stroke:#000000;stroke-width:0.8;" x="437.709486" xlink:href="#m715095cd29" y="630"/>
      </g>
     </g>
     <g id="text_9">
      <!-- 08 -->
      <defs>
       <path d="M 31.78125 34.625 
Q 24.75 34.625 20.71875 30.859375 
Q 16.703125 27.09375 16.703125 20.515625 
Q 16.703125 13.921875 20.71875 10.15625 
Q 24.75 6.390625 31.78125 6.390625 
Q 38.8125 6.390625 42.859375 10.171875 
Q 46.921875 13.96875 46.921875 20.515625 
Q 46.921875 27.09375 42.890625 30.859375 
Q 38.875 34.625 31.78125 34.625 
z
M 21.921875 38.8125 
Q 15.578125 40.375 12.03125 44.71875 
Q 8.5 49.078125 8.5 55.328125 
Q 8.5 64.0625 14.71875 69.140625 
Q 20.953125 74.21875 31.78125 74.21875 
Q 42.671875 74.21875 48.875 69.140625 
Q 55.078125 64.0625 55.078125 55.328125 
Q 55.078125 49.078125 51.53125 44.71875 
Q 48 40.375 41.703125 38.8125 
Q 48.828125 37.15625 52.796875 32.3125 
Q 56.78125 27.484375 56.78125 20.515625 
Q 56.78125 9.90625 50.3125 4.234375 
Q 43.84375 -1.421875 31.78125 -1.421875 
Q 19.734375 -1.421875 13.25 4.234375 
Q 6.78125 9.90625 6.78125 20.515625 
Q 6.78125 27.484375 10.78125 32.3125 
Q 14.796875 37.15625 21.921875 38.8125 
z
M 18.3125 54.390625 
Q 18.3125 48.734375 21.84375 45.5625 
Q 25.390625 42.390625 31.78125 42.390625 
Q 38.140625 42.390625 41.71875 45.5625 
Q 45.3125 48.734375 45.3125 54.390625 
Q 45.3125 60.0625 41.71875 63.234375 
Q 38.140625 66.40625 31.78125 66.40625 
Q 25.390625 66.40625 21.84375 63.234375 
Q 18.3125 60.0625 18.3125 54.390625 
z
" id="DejaVuSans-56"/>
      </defs>
      <g transform="translate(441.848549 656.0875)rotate(-90)scale(0.15 -0.15)">
       <use xlink:href="#DejaVuSans-48"/>
       <use x="63.623047" xlink:href="#DejaVuSans-56"/>
      </g>
     </g>
    </g>
    <g id="xtick_10">
     <g id="line2d_10">
      <g>
       <use style="stroke:#000000;stroke-width:0.8;" x="470.79249" xlink:href="#m715095cd29" y="630"/>
      </g>
     </g>
     <g id="text_10">
      <!-- 09 -->
      <defs>
       <path d="M 10.984375 1.515625 
L 10.984375 10.5 
Q 14.703125 8.734375 18.5 7.8125 
Q 22.3125 6.890625 25.984375 6.890625 
Q 35.75 6.890625 40.890625 13.453125 
Q 46.046875 20.015625 46.78125 33.40625 
Q 43.953125 29.203125 39.59375 26.953125 
Q 35.25 24.703125 29.984375 24.703125 
Q 19.046875 24.703125 12.671875 31.3125 
Q 6.296875 37.9375 6.296875 49.421875 
Q 6.296875 60.640625 12.9375 67.421875 
Q 19.578125 74.21875 30.609375 74.21875 
Q 43.265625 74.21875 49.921875 64.515625 
Q 56.59375 54.828125 56.59375 36.375 
Q 56.59375 19.140625 48.40625 8.859375 
Q 40.234375 -1.421875 26.421875 -1.421875 
Q 22.703125 -1.421875 18.890625 -0.6875 
Q 15.09375 0.046875 10.984375 1.515625 
z
M 30.609375 32.421875 
Q 37.25 32.421875 41.125 36.953125 
Q 45.015625 41.5 45.015625 49.421875 
Q 45.015625 57.28125 41.125 61.84375 
Q 37.25 66.40625 30.609375 66.40625 
Q 23.96875 66.40625 20.09375 61.84375 
Q 16.21875 57.28125 16.21875 49.421875 
Q 16.21875 41.5 20.09375 36.953125 
Q 23.96875 32.421875 30.609375 32.421875 
z
" id="DejaVuSans-57"/>
      </defs>
      <g transform="translate(474.931553 656.0875)rotate(-90)scale(0.15 -0.15)">
       <use xlink:href="#DejaVuSans-48"/>
       <use x="63.623047" xlink:href="#DejaVuSans-57"/>
      </g>
     </g>
    </g>
    <g id="xtick_11">
     <g id="line2d_11">
      <g>
       <use style="stroke:#000000;stroke-width:0.8;" x="503.875494" xlink:href="#m715095cd29" y="630"/>
      </g>
     </g>
     <g id="text_11">
      <!-- 10 -->
      <g transform="translate(508.014557 656.0875)rotate(-90)scale(0.15 -0.15)">
       <use xlink:href="#DejaVuSans-49"/>
       <use x="63.623047" xlink:href="#DejaVuSans-48"/>
      </g>
     </g>
    </g>
    <g id="xtick_12">
     <g id="line2d_12">
      <g>
       <use style="stroke:#000000;stroke-width:0.8;" x="536.958498" xlink:href="#m715095cd29" y="630"/>
      </g>
     </g>
     <g id="text_12">
      <!-- 11 -->
      <g transform="translate(541.097561 656.0875)rotate(-90)scale(0.15 -0.15)">
       <use xlink:href="#DejaVuSans-49"/>
       <use x="63.623047" xlink:href="#DejaVuSans-49"/>
      </g>
     </g>
    </g>
    <g id="xtick_13">
     <g id="line2d_13">
      <g>
       <use style="stroke:#000000;stroke-width:0.8;" x="570.041502" xlink:href="#m715095cd29" y="630"/>
      </g>
     </g>
     <g id="text_13">
      <!-- 12 -->
      <g transform="translate(574.180564 656.0875)rotate(-90)scale(0.15 -0.15)">
       <use xlink:href="#DejaVuSans-49"/>
       <use x="63.623047" xlink:href="#DejaVuSans-50"/>
      </g>
     </g>
    </g>
    <g id="xtick_14">
     <g id="line2d_14">
      <g>
       <use style="stroke:#000000;stroke-width:0.8;" x="603.124506" xlink:href="#m715095cd29" y="630"/>
      </g>
     </g>
     <g id="text_14">
      <!-- 13 -->
      <g transform="translate(607.263568 656.0875)rotate(-90)scale(0.15 -0.15)">
       <use xlink:href="#DejaVuSans-49"/>
       <use x="63.623047" xlink:href="#DejaVuSans-51"/>
      </g>
     </g>
    </g>
    <g id="xtick_15">
     <g id="line2d_15">
      <g>
       <use style="stroke:#000000;stroke-width:0.8;" x="636.20751" xlink:href="#m715095cd29" y="630"/>
      </g>
     </g>
     <g id="text_15">
      <!-- 14 -->
      <g transform="translate(640.346572 656.0875)rotate(-90)scale(0.15 -0.15)">
       <use xlink:href="#DejaVuSans-49"/>
       <use x="63.623047" xlink:href="#DejaVuSans-52"/>
      </g>
     </g>
    </g>
    <g id="xtick_16">
     <g id="line2d_16">
      <g>
       <use style="stroke:#000000;stroke-width:0.8;" x="669.290514" xlink:href="#m715095cd29" y="630"/>
      </g>
     </g>
     <g id="text_16">
      <!-- 15 -->
      <g transform="translate(673.429576 656.0875)rotate(-90)scale(0.15 -0.15)">
       <use xlink:href="#DejaVuSans-49"/>
       <use x="63.623047" xlink:href="#DejaVuSans-53"/>
      </g>
     </g>
    </g>
    <g id="xtick_17">
     <g id="line2d_17">
      <g>
       <use style="stroke:#000000;stroke-width:0.8;" x="702.373518" xlink:href="#m715095cd29" y="630"/>
      </g>
     </g>
     <g id="text_17">
      <!-- 16 -->
      <g transform="translate(706.51258 656.0875)rotate(-90)scale(0.15 -0.15)">
       <use xlink:href="#DejaVuSans-49"/>
       <use x="63.623047" xlink:href="#DejaVuSans-54"/>
      </g>
     </g>
    </g>
    <g id="xtick_18">
     <g id="line2d_18">
      <g>
       <use style="stroke:#000000;stroke-width:0.8;" x="735.456522" xlink:href="#m715095cd29" y="630"/>
      </g>
     </g>
     <g id="text_18">
      <!-- 17 -->
      <g transform="translate(739.595584 656.0875)rotate(-90)scale(0.15 -0.15)">
       <use xlink:href="#DejaVuSans-49"/>
       <use x="63.623047" xlink:href="#DejaVuSans-55"/>
      </g>
     </g>
    </g>
    <g id="xtick_19">
     <g id="line2d_19">
      <g>
       <use style="stroke:#000000;stroke-width:0.8;" x="768.539526" xlink:href="#m715095cd29" y="630"/>
      </g>
     </g>
     <g id="text_19">
      <!-- 18 -->
      <g transform="translate(772.678588 656.0875)rotate(-90)scale(0.15 -0.15)">
       <use xlink:href="#DejaVuSans-49"/>
       <use x="63.623047" xlink:href="#DejaVuSans-56"/>
      </g>
     </g>
    </g>
    <g id="xtick_20">
     <g id="line2d_20">
      <g>
       <use style="stroke:#000000;stroke-width:0.8;" x="801.62253" xlink:href="#m715095cd29" y="630"/>
      </g>
     </g>
     <g id="text_20">
      <!-- 19 -->
      <g transform="translate(805.761592 656.0875)rotate(-90)scale(0.15 -0.15)">
       <use xlink:href="#DejaVuSans-49"/>
       <use x="63.623047" xlink:href="#DejaVuSans-57"/>
      </g>
     </g>
    </g>
    <g id="xtick_21">
     <g id="line2d_21">
      <g>
       <use style="stroke:#000000;stroke-width:0.8;" x="834.705534" xlink:href="#m715095cd29" y="630"/>
      </g>
     </g>
     <g id="text_21">
      <!-- 20 -->
      <g transform="translate(838.844596 656.0875)rotate(-90)scale(0.15 -0.15)">
       <use xlink:href="#DejaVuSans-50"/>
       <use x="63.623047" xlink:href="#DejaVuSans-48"/>
      </g>
     </g>
    </g>
    <g id="xtick_22">
     <g id="line2d_22">
      <g>
       <use style="stroke:#000000;stroke-width:0.8;" x="867.788538" xlink:href="#m715095cd29" y="630"/>
      </g>
     </g>
     <g id="text_22">
      <!-- 21 -->
      <g transform="translate(871.9276 656.0875)rotate(-90)scale(0.15 -0.15)">
       <use xlink:href="#DejaVuSans-50"/>
       <use x="63.623047" xlink:href="#DejaVuSans-49"/>
      </g>
     </g>
    </g>
    <g id="xtick_23">
     <g id="line2d_23">
      <g>
       <use style="stroke:#000000;stroke-width:0.8;" x="900.871542" xlink:href="#m715095cd29" y="630"/>
      </g>
     </g>
     <g id="text_23">
      <!-- 22 -->
      <g transform="translate(905.010604 656.0875)rotate(-90)scale(0.15 -0.15)">
       <use xlink:href="#DejaVuSans-50"/>
       <use x="63.623047" xlink:href="#DejaVuSans-50"/>
      </g>
     </g>
    </g>
    <g id="xtick_24">
     <g id="line2d_24">
      <g>
       <use style="stroke:#000000;stroke-width:0.8;" x="933.954545" xlink:href="#m715095cd29" y="630"/>
      </g>
     </g>
     <g id="text_24">
      <!-- 23 -->
      <g transform="translate(938.093608 656.0875)rotate(-90)scale(0.15 -0.15)">
       <use xlink:href="#DejaVuSans-50"/>
       <use x="63.623047" xlink:href="#DejaVuSans-51"/>
      </g>
     </g>
    </g>
    <g id="text_25">
     <!-- Hour -->
     <defs>
      <path d="M 9.8125 72.90625 
L 19.671875 72.90625 
L 19.671875 43.015625 
L 55.515625 43.015625 
L 55.515625 72.90625 
L 65.375 72.90625 
L 65.375 0 
L 55.515625 0 
L 55.515625 34.71875 
L 19.671875 34.71875 
L 19.671875 0 
L 9.8125 0 
z
" id="DejaVuSans-72"/>
      <path d="M 30.609375 48.390625 
Q 23.390625 48.390625 19.1875 42.75 
Q 14.984375 37.109375 14.984375 27.296875 
Q 14.984375 17.484375 19.15625 11.84375 
Q 23.34375 6.203125 30.609375 6.203125 
Q 37.796875 6.203125 41.984375 11.859375 
Q 46.1875 17.53125 46.1875 27.296875 
Q 46.1875 37.015625 41.984375 42.703125 
Q 37.796875 48.390625 30.609375 48.390625 
z
M 30.609375 56 
Q 42.328125 56 49.015625 48.375 
Q 55.71875 40.765625 55.71875 27.296875 
Q 55.71875 13.875 49.015625 6.21875 
Q 42.328125 -1.421875 30.609375 -1.421875 
Q 18.84375 -1.421875 12.171875 6.21875 
Q 5.515625 13.875 5.515625 27.296875 
Q 5.515625 40.765625 12.171875 48.375 
Q 18.84375 56 30.609375 56 
z
" id="DejaVuSans-111"/>
      <path d="M 8.5 21.578125 
L 8.5 54.6875 
L 17.484375 54.6875 
L 17.484375 21.921875 
Q 17.484375 14.15625 20.5 10.265625 
Q 23.53125 6.390625 29.59375 6.390625 
Q 36.859375 6.390625 41.078125 11.03125 
Q 45.3125 15.671875 45.3125 23.6875 
L 45.3125 54.6875 
L 54.296875 54.6875 
L 54.296875 0 
L 45.3125 0 
L 45.3125 8.40625 
Q 42.046875 3.421875 37.71875 1 
Q 33.40625 -1.421875 27.6875 -1.421875 
Q 18.265625 -1.421875 13.375 4.4375 
Q 8.5 10.296875 8.5 21.578125 
z
M 31.109375 56 
z
" id="DejaVuSans-117"/>
      <path d="M 41.109375 46.296875 
Q 39.59375 47.171875 37.8125 47.578125 
Q 36.03125 48 33.890625 48 
Q 26.265625 48 22.1875 43.046875 
Q 18.109375 38.09375 18.109375 28.8125 
L 18.109375 0 
L 9.078125 0 
L 9.078125 54.6875 
L 18.109375 54.6875 
L 18.109375 46.1875 
Q 20.953125 51.171875 25.484375 53.578125 
Q 30.03125 56 36.53125 56 
Q 37.453125 56 38.578125 55.875 
Q 39.703125 55.765625 41.0625 55.515625 
z
" id="DejaVuSans-114"/>
     </defs>
     <g transform="translate(529.4125 675.284375)scale(0.2 -0.2)">
      <use xlink:href="#DejaVuSans-72"/>
      <use x="75.195312" xlink:href="#DejaVuSans-111"/>
      <use x="136.376953" xlink:href="#DejaVuSans-117"/>
      <use x="199.755859" xlink:href="#DejaVuSans-114"/>
     </g>
    </g>
   </g>
   <g id="matplotlib.axis_2">
    <g id="ytick_1">
     <g id="line2d_25">
      <defs>
       <path d="M 0 0 
L -3.5 0 
" id="mb66b80016a" style="stroke:#000000;stroke-width:0.8;"/>
      </defs>
      <g>
       <use style="stroke:#000000;stroke-width:0.8;" x="135" xlink:href="#mb66b80016a" y="607.699576"/>
      </g>
     </g>
     <g id="text_26">
      <!-- 0 -->
      <g transform="translate(118.45625 613.398404)scale(0.15 -0.15)">
       <use xlink:href="#DejaVuSans-48"/>
      </g>
     </g>
    </g>
    <g id="ytick_2">
     <g id="line2d_26">
      <g>
       <use style="stroke:#000000;stroke-width:0.8;" x="135" xlink:href="#mb66b80016a" y="534.040041"/>
      </g>
     </g>
     <g id="text_27">
      <!-- 10000 -->
      <g transform="translate(80.28125 539.738869)scale(0.15 -0.15)">
       <use xlink:href="#DejaVuSans-49"/>
       <use x="63.623047" xlink:href="#DejaVuSans-48"/>
       <use x="127.246094" xlink:href="#DejaVuSans-48"/>
       <use x="190.869141" xlink:href="#DejaVuSans-48"/>
       <use x="254.492188" xlink:href="#DejaVuSans-48"/>
      </g>
     </g>
    </g>
    <g id="ytick_3">
     <g id="line2d_27">
      <g>
       <use style="stroke:#000000;stroke-width:0.8;" x="135" xlink:href="#mb66b80016a" y="460.380507"/>
      </g>
     </g>
     <g id="text_28">
      <!-- 20000 -->
      <g transform="translate(80.28125 466.079335)scale(0.15 -0.15)">
       <use xlink:href="#DejaVuSans-50"/>
       <use x="63.623047" xlink:href="#DejaVuSans-48"/>
       <use x="127.246094" xlink:href="#DejaVuSans-48"/>
       <use x="190.869141" xlink:href="#DejaVuSans-48"/>
       <use x="254.492188" xlink:href="#DejaVuSans-48"/>
      </g>
     </g>
    </g>
    <g id="ytick_4">
     <g id="line2d_28">
      <g>
       <use style="stroke:#000000;stroke-width:0.8;" x="135" xlink:href="#mb66b80016a" y="386.720972"/>
      </g>
     </g>
     <g id="text_29">
      <!-- 30000 -->
      <g transform="translate(80.28125 392.4198)scale(0.15 -0.15)">
       <use xlink:href="#DejaVuSans-51"/>
       <use x="63.623047" xlink:href="#DejaVuSans-48"/>
       <use x="127.246094" xlink:href="#DejaVuSans-48"/>
       <use x="190.869141" xlink:href="#DejaVuSans-48"/>
       <use x="254.492188" xlink:href="#DejaVuSans-48"/>
      </g>
     </g>
    </g>
    <g id="ytick_5">
     <g id="line2d_29">
      <g>
       <use style="stroke:#000000;stroke-width:0.8;" x="135" xlink:href="#mb66b80016a" y="313.061437"/>
      </g>
     </g>
     <g id="text_30">
      <!-- 40000 -->
      <g transform="translate(80.28125 318.760265)scale(0.15 -0.15)">
       <use xlink:href="#DejaVuSans-52"/>
       <use x="63.623047" xlink:href="#DejaVuSans-48"/>
       <use x="127.246094" xlink:href="#DejaVuSans-48"/>
       <use x="190.869141" xlink:href="#DejaVuSans-48"/>
       <use x="254.492188" xlink:href="#DejaVuSans-48"/>
      </g>
     </g>
    </g>
    <g id="ytick_6">
     <g id="line2d_30">
      <g>
       <use style="stroke:#000000;stroke-width:0.8;" x="135" xlink:href="#mb66b80016a" y="239.401902"/>
      </g>
     </g>
     <g id="text_31">
      <!-- 50000 -->
      <g transform="translate(80.28125 245.100731)scale(0.15 -0.15)">
       <use xlink:href="#DejaVuSans-53"/>
       <use x="63.623047" xlink:href="#DejaVuSans-48"/>
       <use x="127.246094" xlink:href="#DejaVuSans-48"/>
       <use x="190.869141" xlink:href="#DejaVuSans-48"/>
       <use x="254.492188" xlink:href="#DejaVuSans-48"/>
      </g>
     </g>
    </g>
    <g id="ytick_7">
     <g id="line2d_31">
      <g>
       <use style="stroke:#000000;stroke-width:0.8;" x="135" xlink:href="#mb66b80016a" y="165.742368"/>
      </g>
     </g>
     <g id="text_32">
      <!-- 60000 -->
      <g transform="translate(80.28125 171.441196)scale(0.15 -0.15)">
       <use xlink:href="#DejaVuSans-54"/>
       <use x="63.623047" xlink:href="#DejaVuSans-48"/>
       <use x="127.246094" xlink:href="#DejaVuSans-48"/>
       <use x="190.869141" xlink:href="#DejaVuSans-48"/>
       <use x="254.492188" xlink:href="#DejaVuSans-48"/>
      </g>
     </g>
    </g>
    <g id="ytick_8">
     <g id="line2d_32">
      <g>
       <use style="stroke:#000000;stroke-width:0.8;" x="135" xlink:href="#mb66b80016a" y="92.082833"/>
      </g>
     </g>
     <g id="text_33">
      <!-- 70000 -->
      <g transform="translate(80.28125 97.781661)scale(0.15 -0.15)">
       <use xlink:href="#DejaVuSans-55"/>
       <use x="63.623047" xlink:href="#DejaVuSans-48"/>
       <use x="127.246094" xlink:href="#DejaVuSans-48"/>
       <use x="190.869141" xlink:href="#DejaVuSans-48"/>
       <use x="254.492188" xlink:href="#DejaVuSans-48"/>
      </g>
     </g>
    </g>
    <g id="text_34">
     <!-- Exits -->
     <defs>
      <path d="M 9.8125 72.90625 
L 55.90625 72.90625 
L 55.90625 64.59375 
L 19.671875 64.59375 
L 19.671875 43.015625 
L 54.390625 43.015625 
L 54.390625 34.71875 
L 19.671875 34.71875 
L 19.671875 8.296875 
L 56.78125 8.296875 
L 56.78125 0 
L 9.8125 0 
z
" id="DejaVuSans-69"/>
      <path d="M 54.890625 54.6875 
L 35.109375 28.078125 
L 55.90625 0 
L 45.3125 0 
L 29.390625 21.484375 
L 13.484375 0 
L 2.875 0 
L 24.125 28.609375 
L 4.6875 54.6875 
L 15.28125 54.6875 
L 29.78125 35.203125 
L 44.28125 54.6875 
z
" id="DejaVuSans-120"/>
      <path d="M 9.421875 54.6875 
L 18.40625 54.6875 
L 18.40625 0 
L 9.421875 0 
z
M 9.421875 75.984375 
L 18.40625 75.984375 
L 18.40625 64.59375 
L 9.421875 64.59375 
z
" id="DejaVuSans-105"/>
      <path d="M 18.3125 70.21875 
L 18.3125 54.6875 
L 36.8125 54.6875 
L 36.8125 47.703125 
L 18.3125 47.703125 
L 18.3125 18.015625 
Q 18.3125 11.328125 20.140625 9.421875 
Q 21.96875 7.515625 27.59375 7.515625 
L 36.8125 7.515625 
L 36.8125 0 
L 27.59375 0 
Q 17.1875 0 13.234375 3.875 
Q 9.28125 7.765625 9.28125 18.015625 
L 9.28125 47.703125 
L 2.6875 47.703125 
L 2.6875 54.6875 
L 9.28125 54.6875 
L 9.28125 70.21875 
z
" id="DejaVuSans-116"/>
      <path d="M 44.28125 53.078125 
L 44.28125 44.578125 
Q 40.484375 46.53125 36.375 47.5 
Q 32.28125 48.484375 27.875 48.484375 
Q 21.1875 48.484375 17.84375 46.4375 
Q 14.5 44.390625 14.5 40.28125 
Q 14.5 37.15625 16.890625 35.375 
Q 19.28125 33.59375 26.515625 31.984375 
L 29.59375 31.296875 
Q 39.15625 29.25 43.1875 25.515625 
Q 47.21875 21.78125 47.21875 15.09375 
Q 47.21875 7.46875 41.1875 3.015625 
Q 35.15625 -1.421875 24.609375 -1.421875 
Q 20.21875 -1.421875 15.453125 -0.5625 
Q 10.6875 0.296875 5.421875 2 
L 5.421875 11.28125 
Q 10.40625 8.6875 15.234375 7.390625 
Q 20.0625 6.109375 24.8125 6.109375 
Q 31.15625 6.109375 34.5625 8.28125 
Q 37.984375 10.453125 37.984375 14.40625 
Q 37.984375 18.0625 35.515625 20.015625 
Q 33.0625 21.96875 24.703125 23.78125 
L 21.578125 24.515625 
Q 13.234375 26.265625 9.515625 29.90625 
Q 5.8125 33.546875 5.8125 39.890625 
Q 5.8125 47.609375 11.28125 51.796875 
Q 16.75 56 26.8125 56 
Q 31.78125 56 36.171875 55.265625 
Q 40.578125 54.546875 44.28125 53.078125 
z
" id="DejaVuSans-115"/>
     </defs>
     <g transform="translate(72.121875 382.345312)rotate(-90)scale(0.2 -0.2)">
      <use xlink:href="#DejaVuSans-69"/>
      <use x="63.183594" xlink:href="#DejaVuSans-120"/>
      <use x="122.363281" xlink:href="#DejaVuSans-105"/>
      <use x="150.146484" xlink:href="#DejaVuSans-116"/>
      <use x="189.355469" xlink:href="#DejaVuSans-115"/>
     </g>
    </g>
   </g>
   <g id="line2d_33">
    <path clip-path="url(#p99f972c3ca)" d="M 173.045455 369.035318 
L 206.128458 560.496091 
L 239.211462 585.768677 
L 272.294466 604.006778 
L 305.37747 569.595499 
L 338.460474 599.675597 
L 371.543478 599.108419 
L 404.626482 553.115405 
L 437.709486 316.027461 
L 470.79249 468.421672 
L 503.875494 559.72021 
L 536.958498 576.94181 
L 570.041502 187.447377 
L 603.124506 444.796604 
L 636.20751 547.394515 
L 669.290514 575.51527 
L 702.373518 162.759157 
L 735.456522 427.985043 
L 768.539526 558.728262 
L 801.62253 571.95997 
L 834.705534 202.002501 
L 867.788538 457.409572 
L 900.871542 553.18661 
L 933.954545 590.107224 
" style="fill:none;stroke:#1f77b4;stroke-linecap:square;stroke-width:1.5;"/>
   </g>
   <g id="line2d_34">
    <path clip-path="url(#p99f972c3ca)" d="M 173.045455 357.210507 
L 206.128458 557.110207 
L 239.211462 587.720655 
L 272.294466 604.323514 
L 305.37747 567.606691 
L 338.460474 598.678738 
L 371.543478 596.230786 
L 404.626482 594.153587 
L 437.709486 220.999295 
L 470.79249 390.941663 
L 503.875494 548.047629 
L 536.958498 568.630559 
L 570.041502 145.537557 
L 603.124506 422.647182 
L 636.20751 548.582889 
L 669.290514 573.113969 
L 702.373518 126.462193 
L 735.456522 411.225044 
L 768.539526 571.412434 
L 801.62253 568.937473 
L 834.705534 159.928175 
L 867.788538 437.214583 
L 900.871542 551.072581 
L 933.954545 587.293429 
" style="fill:none;stroke:#ff7f0e;stroke-linecap:square;stroke-width:1.5;"/>
   </g>
   <g id="line2d_35">
    <path clip-path="url(#p99f972c3ca)" d="M 173.045455 317.719175 
L 206.128458 542.400398 
L 239.211462 583.696389 
L 272.294466 603.572187 
L 305.37747 567.363615 
L 338.460474 597.799734 
L 371.543478 597.505096 
L 404.626482 594.98594 
L 437.709486 200.806762 
L 470.79249 389.316243 
L 503.875494 547.090055 
L 536.958498 558.534292 
L 570.041502 144.626635 
L 603.124506 423.86502 
L 636.20751 546.498324 
L 669.290514 573.047675 
L 702.373518 119.086419 
L 735.456522 417.518023 
L 768.539526 569.41135 
L 801.62253 569.185461 
L 834.705534 157.755219 
L 867.788538 443.188371 
L 900.871542 552.138189 
L 933.954545 586.863749 
" style="fill:none;stroke:#2ca02c;stroke-linecap:square;stroke-width:1.5;"/>
   </g>
   <g id="line2d_36">
    <path clip-path="url(#p99f972c3ca)" d="M 173.045455 321.979151 
L 206.128458 542.977398 
L 239.211462 582.768279 
L 272.294466 603.238263 
L 305.37747 567.191742 
L 338.460474 598.317806 
L 371.543478 597.829198 
L 404.626482 594.460502 
L 437.709486 198.245865 
L 470.79249 436.372409 
L 503.875494 547.738259 
L 536.958498 565.627705 
L 570.041502 145.869025 
L 603.124506 418.252163 
L 636.20751 544.430946 
L 669.290514 570.378745 
L 702.373518 116.505879 
L 735.456522 427.218984 
L 768.539526 571.810195 
L 801.62253 566.270998 
L 834.705534 161.190209 
L 867.788538 439.836862 
L 900.871542 554.568954 
L 933.954545 584.067142 
" style="fill:none;stroke:#d62728;stroke-linecap:square;stroke-width:1.5;"/>
   </g>
   <g id="line2d_37">
    <path clip-path="url(#p99f972c3ca)" d="M 173.045455 309.137839 
L 206.128458 535.14739 
L 239.211462 578.854502 
L 272.294466 602.707915 
L 305.37747 560.667963 
L 338.460474 598.106649 
L 371.543478 596.748858 
L 404.626482 594.160953 
L 437.709486 235.439019 
L 470.79249 435.132473 
L 503.875494 532.070876 
L 536.958498 552.793759 
L 570.041502 143.715712 
L 603.124506 425.114777 
L 636.20751 542.540351 
L 669.290514 569.504652 
L 702.373518 127.606371 
L 735.456522 423.420607 
L 768.539526 567.992176 
L 801.62253 568.861359 
L 834.705534 164.450871 
L 867.788538 432.566666 
L 900.871542 553.427231 
L 933.954545 584.906861 
" style="fill:none;stroke:#9467bd;stroke-linecap:square;stroke-width:1.5;"/>
   </g>
   <g id="line2d_38"/>
   <g id="line2d_39"/>
   <g id="line2d_40"/>
   <g id="line2d_41"/>
   <g id="line2d_42"/>
   <g id="line2d_43"/>
   <g id="patch_3">
    <path d="M 135 630 
L 135 86.4 
" style="fill:none;stroke:#000000;stroke-linecap:square;stroke-linejoin:miter;stroke-width:0.8;"/>
   </g>
   <g id="patch_4">
    <path d="M 972 630 
L 972 86.4 
" style="fill:none;stroke:#000000;stroke-linecap:square;stroke-linejoin:miter;stroke-width:0.8;"/>
   </g>
   <g id="patch_5">
    <path d="M 135 630 
L 972 630 
" style="fill:none;stroke:#000000;stroke-linecap:square;stroke-linejoin:miter;stroke-width:0.8;"/>
   </g>
   <g id="patch_6">
    <path d="M 135 86.4 
L 972 86.4 
" style="fill:none;stroke:#000000;stroke-linecap:square;stroke-linejoin:miter;stroke-width:0.8;"/>
   </g>
   <g id="text_35">
    <!-- Exits per Hour in Silicon Alley -->
    <defs>
     <path id="DejaVuSans-32"/>
     <path d="M 18.109375 8.203125 
L 18.109375 -20.796875 
L 9.078125 -20.796875 
L 9.078125 54.6875 
L 18.109375 54.6875 
L 18.109375 46.390625 
Q 20.953125 51.265625 25.265625 53.625 
Q 29.59375 56 35.59375 56 
Q 45.5625 56 51.78125 48.09375 
Q 58.015625 40.1875 58.015625 27.296875 
Q 58.015625 14.40625 51.78125 6.484375 
Q 45.5625 -1.421875 35.59375 -1.421875 
Q 29.59375 -1.421875 25.265625 0.953125 
Q 20.953125 3.328125 18.109375 8.203125 
z
M 48.6875 27.296875 
Q 48.6875 37.203125 44.609375 42.84375 
Q 40.53125 48.484375 33.40625 48.484375 
Q 26.265625 48.484375 22.1875 42.84375 
Q 18.109375 37.203125 18.109375 27.296875 
Q 18.109375 17.390625 22.1875 11.75 
Q 26.265625 6.109375 33.40625 6.109375 
Q 40.53125 6.109375 44.609375 11.75 
Q 48.6875 17.390625 48.6875 27.296875 
z
" id="DejaVuSans-112"/>
     <path d="M 56.203125 29.59375 
L 56.203125 25.203125 
L 14.890625 25.203125 
Q 15.484375 15.921875 20.484375 11.0625 
Q 25.484375 6.203125 34.421875 6.203125 
Q 39.59375 6.203125 44.453125 7.46875 
Q 49.3125 8.734375 54.109375 11.28125 
L 54.109375 2.78125 
Q 49.265625 0.734375 44.1875 -0.34375 
Q 39.109375 -1.421875 33.890625 -1.421875 
Q 20.796875 -1.421875 13.15625 6.1875 
Q 5.515625 13.8125 5.515625 26.8125 
Q 5.515625 40.234375 12.765625 48.109375 
Q 20.015625 56 32.328125 56 
Q 43.359375 56 49.78125 48.890625 
Q 56.203125 41.796875 56.203125 29.59375 
z
M 47.21875 32.234375 
Q 47.125 39.59375 43.09375 43.984375 
Q 39.0625 48.390625 32.421875 48.390625 
Q 24.90625 48.390625 20.390625 44.140625 
Q 15.875 39.890625 15.1875 32.171875 
z
" id="DejaVuSans-101"/>
     <path d="M 54.890625 33.015625 
L 54.890625 0 
L 45.90625 0 
L 45.90625 32.71875 
Q 45.90625 40.484375 42.875 44.328125 
Q 39.84375 48.1875 33.796875 48.1875 
Q 26.515625 48.1875 22.3125 43.546875 
Q 18.109375 38.921875 18.109375 30.90625 
L 18.109375 0 
L 9.078125 0 
L 9.078125 54.6875 
L 18.109375 54.6875 
L 18.109375 46.1875 
Q 21.34375 51.125 25.703125 53.5625 
Q 30.078125 56 35.796875 56 
Q 45.21875 56 50.046875 50.171875 
Q 54.890625 44.34375 54.890625 33.015625 
z
" id="DejaVuSans-110"/>
     <path d="M 53.515625 70.515625 
L 53.515625 60.890625 
Q 47.90625 63.578125 42.921875 64.890625 
Q 37.9375 66.21875 33.296875 66.21875 
Q 25.25 66.21875 20.875 63.09375 
Q 16.5 59.96875 16.5 54.203125 
Q 16.5 49.359375 19.40625 46.890625 
Q 22.3125 44.4375 30.421875 42.921875 
L 36.375 41.703125 
Q 47.40625 39.59375 52.65625 34.296875 
Q 57.90625 29 57.90625 20.125 
Q 57.90625 9.515625 50.796875 4.046875 
Q 43.703125 -1.421875 29.984375 -1.421875 
Q 24.8125 -1.421875 18.96875 -0.25 
Q 13.140625 0.921875 6.890625 3.21875 
L 6.890625 13.375 
Q 12.890625 10.015625 18.65625 8.296875 
Q 24.421875 6.59375 29.984375 6.59375 
Q 38.421875 6.59375 43.015625 9.90625 
Q 47.609375 13.234375 47.609375 19.390625 
Q 47.609375 24.75 44.3125 27.78125 
Q 41.015625 30.8125 33.5 32.328125 
L 27.484375 33.5 
Q 16.453125 35.6875 11.515625 40.375 
Q 6.59375 45.0625 6.59375 53.421875 
Q 6.59375 63.09375 13.40625 68.65625 
Q 20.21875 74.21875 32.171875 74.21875 
Q 37.3125 74.21875 42.625 73.28125 
Q 47.953125 72.359375 53.515625 70.515625 
z
" id="DejaVuSans-83"/>
     <path d="M 9.421875 75.984375 
L 18.40625 75.984375 
L 18.40625 0 
L 9.421875 0 
z
" id="DejaVuSans-108"/>
     <path d="M 48.78125 52.59375 
L 48.78125 44.1875 
Q 44.96875 46.296875 41.140625 47.34375 
Q 37.3125 48.390625 33.40625 48.390625 
Q 24.65625 48.390625 19.8125 42.84375 
Q 14.984375 37.3125 14.984375 27.296875 
Q 14.984375 17.28125 19.8125 11.734375 
Q 24.65625 6.203125 33.40625 6.203125 
Q 37.3125 6.203125 41.140625 7.25 
Q 44.96875 8.296875 48.78125 10.40625 
L 48.78125 2.09375 
Q 45.015625 0.34375 40.984375 -0.53125 
Q 36.96875 -1.421875 32.421875 -1.421875 
Q 20.0625 -1.421875 12.78125 6.34375 
Q 5.515625 14.109375 5.515625 27.296875 
Q 5.515625 40.671875 12.859375 48.328125 
Q 20.21875 56 33.015625 56 
Q 37.15625 56 41.109375 55.140625 
Q 45.0625 54.296875 48.78125 52.59375 
z
" id="DejaVuSans-99"/>
     <path d="M 34.1875 63.1875 
L 20.796875 26.90625 
L 47.609375 26.90625 
z
M 28.609375 72.90625 
L 39.796875 72.90625 
L 67.578125 0 
L 57.328125 0 
L 50.6875 18.703125 
L 17.828125 18.703125 
L 11.1875 0 
L 0.78125 0 
z
" id="DejaVuSans-65"/>
     <path d="M 32.171875 -5.078125 
Q 28.375 -14.84375 24.75 -17.8125 
Q 21.140625 -20.796875 15.09375 -20.796875 
L 7.90625 -20.796875 
L 7.90625 -13.28125 
L 13.1875 -13.28125 
Q 16.890625 -13.28125 18.9375 -11.515625 
Q 21 -9.765625 23.484375 -3.21875 
L 25.09375 0.875 
L 2.984375 54.6875 
L 12.5 54.6875 
L 29.59375 11.921875 
L 46.6875 54.6875 
L 56.203125 54.6875 
z
" id="DejaVuSans-121"/>
    </defs>
    <g transform="translate(333.063281 80.160937)scale(0.3 -0.3)">
     <use xlink:href="#DejaVuSans-69"/>
     <use x="63.183594" xlink:href="#DejaVuSans-120"/>
     <use x="122.363281" xlink:href="#DejaVuSans-105"/>
     <use x="150.146484" xlink:href="#DejaVuSans-116"/>
     <use x="189.355469" xlink:href="#DejaVuSans-115"/>
     <use x="241.455078" xlink:href="#DejaVuSans-32"/>
     <use x="273.242188" xlink:href="#DejaVuSans-112"/>
     <use x="336.71875" xlink:href="#DejaVuSans-101"/>
     <use x="398.242188" xlink:href="#DejaVuSans-114"/>
     <use x="439.355469" xlink:href="#DejaVuSans-32"/>
     <use x="471.142578" xlink:href="#DejaVuSans-72"/>
     <use x="546.337891" xlink:href="#DejaVuSans-111"/>
     <use x="607.519531" xlink:href="#DejaVuSans-117"/>
     <use x="670.898438" xlink:href="#DejaVuSans-114"/>
     <use x="712.011719" xlink:href="#DejaVuSans-32"/>
     <use x="743.798828" xlink:href="#DejaVuSans-105"/>
     <use x="771.582031" xlink:href="#DejaVuSans-110"/>
     <use x="834.960938" xlink:href="#DejaVuSans-32"/>
     <use x="866.748047" xlink:href="#DejaVuSans-83"/>
     <use x="930.224609" xlink:href="#DejaVuSans-105"/>
     <use x="958.007812" xlink:href="#DejaVuSans-108"/>
     <use x="985.791016" xlink:href="#DejaVuSans-105"/>
     <use x="1013.574219" xlink:href="#DejaVuSans-99"/>
     <use x="1068.554688" xlink:href="#DejaVuSans-111"/>
     <use x="1129.736328" xlink:href="#DejaVuSans-110"/>
     <use x="1193.115234" xlink:href="#DejaVuSans-32"/>
     <use x="1224.902344" xlink:href="#DejaVuSans-65"/>
     <use x="1293.310547" xlink:href="#DejaVuSans-108"/>
     <use x="1321.09375" xlink:href="#DejaVuSans-108"/>
     <use x="1348.876953" xlink:href="#DejaVuSans-101"/>
     <use x="1410.400391" xlink:href="#DejaVuSans-121"/>
    </g>
   </g>
   <g id="legend_1">
    <g id="patch_7">
     <path d="M 149 278.5375 
L 329.953125 278.5375 
Q 333.953125 278.5375 333.953125 274.5375 
L 333.953125 100.4 
Q 333.953125 96.4 329.953125 96.4 
L 149 96.4 
Q 145 96.4 145 100.4 
L 145 274.5375 
Q 145 278.5375 149 278.5375 
z
" style="fill:#ffffff;opacity:0.8;stroke:#cccccc;stroke-linejoin:miter;"/>
    </g>
    <g id="line2d_44">
     <path d="M 153 112.596875 
L 193 112.596875 
" style="fill:none;"/>
    </g>
    <g id="line2d_45"/>
    <g id="text_36">
     <!-- weekday -->
     <defs>
      <path d="M 4.203125 54.6875 
L 13.1875 54.6875 
L 24.421875 12.015625 
L 35.59375 54.6875 
L 46.1875 54.6875 
L 57.421875 12.015625 
L 68.609375 54.6875 
L 77.59375 54.6875 
L 63.28125 0 
L 52.6875 0 
L 40.921875 44.828125 
L 29.109375 0 
L 18.5 0 
z
" id="DejaVuSans-119"/>
      <path d="M 9.078125 75.984375 
L 18.109375 75.984375 
L 18.109375 31.109375 
L 44.921875 54.6875 
L 56.390625 54.6875 
L 27.390625 29.109375 
L 57.625 0 
L 45.90625 0 
L 18.109375 26.703125 
L 18.109375 0 
L 9.078125 0 
z
" id="DejaVuSans-107"/>
      <path d="M 45.40625 46.390625 
L 45.40625 75.984375 
L 54.390625 75.984375 
L 54.390625 0 
L 45.40625 0 
L 45.40625 8.203125 
Q 42.578125 3.328125 38.25 0.953125 
Q 33.9375 -1.421875 27.875 -1.421875 
Q 17.96875 -1.421875 11.734375 6.484375 
Q 5.515625 14.40625 5.515625 27.296875 
Q 5.515625 40.1875 11.734375 48.09375 
Q 17.96875 56 27.875 56 
Q 33.9375 56 38.25 53.625 
Q 42.578125 51.265625 45.40625 46.390625 
z
M 14.796875 27.296875 
Q 14.796875 17.390625 18.875 11.75 
Q 22.953125 6.109375 30.078125 6.109375 
Q 37.203125 6.109375 41.296875 11.75 
Q 45.40625 17.390625 45.40625 27.296875 
Q 45.40625 37.203125 41.296875 42.84375 
Q 37.203125 48.484375 30.078125 48.484375 
Q 22.953125 48.484375 18.875 42.84375 
Q 14.796875 37.203125 14.796875 27.296875 
z
" id="DejaVuSans-100"/>
      <path d="M 34.28125 27.484375 
Q 23.390625 27.484375 19.1875 25 
Q 14.984375 22.515625 14.984375 16.5 
Q 14.984375 11.71875 18.140625 8.90625 
Q 21.296875 6.109375 26.703125 6.109375 
Q 34.1875 6.109375 38.703125 11.40625 
Q 43.21875 16.703125 43.21875 25.484375 
L 43.21875 27.484375 
z
M 52.203125 31.203125 
L 52.203125 0 
L 43.21875 0 
L 43.21875 8.296875 
Q 40.140625 3.328125 35.546875 0.953125 
Q 30.953125 -1.421875 24.3125 -1.421875 
Q 15.921875 -1.421875 10.953125 3.296875 
Q 6 8.015625 6 15.921875 
Q 6 25.140625 12.171875 29.828125 
Q 18.359375 34.515625 30.609375 34.515625 
L 43.21875 34.515625 
L 43.21875 35.40625 
Q 43.21875 41.609375 39.140625 45 
Q 35.0625 48.390625 27.6875 48.390625 
Q 23 48.390625 18.546875 47.265625 
Q 14.109375 46.140625 10.015625 43.890625 
L 10.015625 52.203125 
Q 14.9375 54.109375 19.578125 55.046875 
Q 24.21875 56 28.609375 56 
Q 40.484375 56 46.34375 49.84375 
Q 52.203125 43.703125 52.203125 31.203125 
z
" id="DejaVuSans-97"/>
     </defs>
     <g transform="translate(209 119.596875)scale(0.2 -0.2)">
      <use xlink:href="#DejaVuSans-119"/>
      <use x="81.787109" xlink:href="#DejaVuSans-101"/>
      <use x="143.310547" xlink:href="#DejaVuSans-101"/>
      <use x="204.833984" xlink:href="#DejaVuSans-107"/>
      <use x="262.744141" xlink:href="#DejaVuSans-100"/>
      <use x="326.220703" xlink:href="#DejaVuSans-97"/>
      <use x="387.5" xlink:href="#DejaVuSans-121"/>
     </g>
    </g>
    <g id="line2d_46">
     <path d="M 153 141.953125 
L 193 141.953125 
" style="fill:none;stroke:#1f77b4;stroke-linecap:square;stroke-width:1.5;"/>
    </g>
    <g id="line2d_47"/>
    <g id="text_37">
     <!-- Monday -->
     <defs>
      <path d="M 9.8125 72.90625 
L 24.515625 72.90625 
L 43.109375 23.296875 
L 61.8125 72.90625 
L 76.515625 72.90625 
L 76.515625 0 
L 66.890625 0 
L 66.890625 64.015625 
L 48.09375 14.015625 
L 38.1875 14.015625 
L 19.390625 64.015625 
L 19.390625 0 
L 9.8125 0 
z
" id="DejaVuSans-77"/>
     </defs>
     <g transform="translate(209 148.953125)scale(0.2 -0.2)">
      <use xlink:href="#DejaVuSans-77"/>
      <use x="86.279297" xlink:href="#DejaVuSans-111"/>
      <use x="147.460938" xlink:href="#DejaVuSans-110"/>
      <use x="210.839844" xlink:href="#DejaVuSans-100"/>
      <use x="274.316406" xlink:href="#DejaVuSans-97"/>
      <use x="335.595703" xlink:href="#DejaVuSans-121"/>
     </g>
    </g>
    <g id="line2d_48">
     <path d="M 153 171.309375 
L 193 171.309375 
" style="fill:none;stroke:#ff7f0e;stroke-linecap:square;stroke-width:1.5;"/>
    </g>
    <g id="line2d_49"/>
    <g id="text_38">
     <!-- Tuesday -->
     <defs>
      <path d="M -0.296875 72.90625 
L 61.375 72.90625 
L 61.375 64.59375 
L 35.5 64.59375 
L 35.5 0 
L 25.59375 0 
L 25.59375 64.59375 
L -0.296875 64.59375 
z
" id="DejaVuSans-84"/>
     </defs>
     <g transform="translate(209 178.309375)scale(0.2 -0.2)">
      <use xlink:href="#DejaVuSans-84"/>
      <use x="60.849609" xlink:href="#DejaVuSans-117"/>
      <use x="124.228516" xlink:href="#DejaVuSans-101"/>
      <use x="185.751953" xlink:href="#DejaVuSans-115"/>
      <use x="237.851562" xlink:href="#DejaVuSans-100"/>
      <use x="301.328125" xlink:href="#DejaVuSans-97"/>
      <use x="362.607422" xlink:href="#DejaVuSans-121"/>
     </g>
    </g>
    <g id="line2d_50">
     <path d="M 153 200.665625 
L 193 200.665625 
" style="fill:none;stroke:#2ca02c;stroke-linecap:square;stroke-width:1.5;"/>
    </g>
    <g id="line2d_51"/>
    <g id="text_39">
     <!-- Wednesday -->
     <defs>
      <path d="M 3.328125 72.90625 
L 13.28125 72.90625 
L 28.609375 11.28125 
L 43.890625 72.90625 
L 54.984375 72.90625 
L 70.3125 11.28125 
L 85.59375 72.90625 
L 95.609375 72.90625 
L 77.296875 0 
L 64.890625 0 
L 49.515625 63.28125 
L 33.984375 0 
L 21.578125 0 
z
" id="DejaVuSans-87"/>
     </defs>
     <g transform="translate(209 207.665625)scale(0.2 -0.2)">
      <use xlink:href="#DejaVuSans-87"/>
      <use x="98.798828" xlink:href="#DejaVuSans-101"/>
      <use x="160.322266" xlink:href="#DejaVuSans-100"/>
      <use x="223.798828" xlink:href="#DejaVuSans-110"/>
      <use x="287.177734" xlink:href="#DejaVuSans-101"/>
      <use x="348.701172" xlink:href="#DejaVuSans-115"/>
      <use x="400.800781" xlink:href="#DejaVuSans-100"/>
      <use x="464.277344" xlink:href="#DejaVuSans-97"/>
      <use x="525.556641" xlink:href="#DejaVuSans-121"/>
     </g>
    </g>
    <g id="line2d_52">
     <path d="M 153 230.021875 
L 193 230.021875 
" style="fill:none;stroke:#d62728;stroke-linecap:square;stroke-width:1.5;"/>
    </g>
    <g id="line2d_53"/>
    <g id="text_40">
     <!-- Thursday -->
     <defs>
      <path d="M 54.890625 33.015625 
L 54.890625 0 
L 45.90625 0 
L 45.90625 32.71875 
Q 45.90625 40.484375 42.875 44.328125 
Q 39.84375 48.1875 33.796875 48.1875 
Q 26.515625 48.1875 22.3125 43.546875 
Q 18.109375 38.921875 18.109375 30.90625 
L 18.109375 0 
L 9.078125 0 
L 9.078125 75.984375 
L 18.109375 75.984375 
L 18.109375 46.1875 
Q 21.34375 51.125 25.703125 53.5625 
Q 30.078125 56 35.796875 56 
Q 45.21875 56 50.046875 50.171875 
Q 54.890625 44.34375 54.890625 33.015625 
z
" id="DejaVuSans-104"/>
     </defs>
     <g transform="translate(209 237.021875)scale(0.2 -0.2)">
      <use xlink:href="#DejaVuSans-84"/>
      <use x="61.083984" xlink:href="#DejaVuSans-104"/>
      <use x="124.462891" xlink:href="#DejaVuSans-117"/>
      <use x="187.841797" xlink:href="#DejaVuSans-114"/>
      <use x="228.955078" xlink:href="#DejaVuSans-115"/>
      <use x="281.054688" xlink:href="#DejaVuSans-100"/>
      <use x="344.53125" xlink:href="#DejaVuSans-97"/>
      <use x="405.810547" xlink:href="#DejaVuSans-121"/>
     </g>
    </g>
    <g id="line2d_54">
     <path d="M 153 259.378125 
L 193 259.378125 
" style="fill:none;stroke:#9467bd;stroke-linecap:square;stroke-width:1.5;"/>
    </g>
    <g id="line2d_55"/>
    <g id="text_41">
     <!-- Friday -->
     <defs>
      <path d="M 9.8125 72.90625 
L 51.703125 72.90625 
L 51.703125 64.59375 
L 19.671875 64.59375 
L 19.671875 43.109375 
L 48.578125 43.109375 
L 48.578125 34.8125 
L 19.671875 34.8125 
L 19.671875 0 
L 9.8125 0 
z
" id="DejaVuSans-70"/>
     </defs>
     <g transform="translate(209 266.378125)scale(0.2 -0.2)">
      <use xlink:href="#DejaVuSans-70"/>
      <use x="57.410156" xlink:href="#DejaVuSans-114"/>
      <use x="98.523438" xlink:href="#DejaVuSans-105"/>
      <use x="126.306641" xlink:href="#DejaVuSans-100"/>
      <use x="189.783203" xlink:href="#DejaVuSans-97"/>
      <use x="251.0625" xlink:href="#DejaVuSans-121"/>
     </g>
    </g>
   </g>
  </g>
 </g>
 <defs>
  <clipPath id="p99f972c3ca">
   <rect height="543.6" width="837" x="135" y="86.4"/>
  </clipPath>
 </defs>
</svg>
